<svg width="124" height="52" viewBox="0 0 124 52" fill="none" xmlns="http://www.w3.org/2000/svg">
<path d="M30.6079 46.9668C29.4653 46.4541 28.4912 45.9487 27.6855 45.4507C26.8945 44.9526 26.1914 44.4619 25.5762 43.9785C24.5654 44.7988 23.313 45.436 21.8188 45.8901C20.3247 46.3296 18.5083 46.5493 16.3696 46.5493C11.9019 46.5493 8.60596 45.4873 6.48193 43.3633C4.35791 41.2246 3.2959 37.687 3.2959 32.7505V13.7881H9.7998V31.8276C9.7998 34.6694 10.0049 36.6616 10.415 37.8042C10.8252 38.9321 11.5063 39.7817 12.4585 40.353C13.4106 40.9243 14.7144 41.21 16.3696 41.21C17.3511 41.21 18.208 41.1514 18.9404 41.0342C19.6729 40.9023 20.3027 40.7192 20.8301 40.4849C20.332 40.2212 19.7754 39.9648 19.1602 39.7158C18.5449 39.4521 17.8418 39.1958 17.0508 38.9468L18.9624 33.4316C19.8706 33.7979 20.6763 34.1787 21.3794 34.5742C22.0825 34.9697 22.7271 35.3799 23.313 35.8047C23.2837 35.1895 23.2104 34.5522 23.0933 33.8931C22.9907 33.2192 22.9395 32.5308 22.9395 31.8276V13.7881H29.4434V32.7505C29.4434 34.0542 29.3701 35.292 29.2236 36.4639C29.0771 37.6357 28.8208 38.7271 28.4546 39.7378C29.0259 40.0894 29.6558 40.4336 30.3442 40.7705C31.0327 41.0928 31.8164 41.4004 32.6953 41.6934L30.6079 46.9668Z" fill="#14A800"/>
<path d="M37.416 24.6836H40.1602V33.9219C40.1602 35.0352 40.2188 35.7578 40.3359 36.0898C40.4531 36.4154 40.6419 36.6725 40.9023 36.8613C41.1628 37.0436 41.4818 37.1348 41.8594 37.1348C42.3737 37.1348 42.8294 36.9818 43.2266 36.6758C43.6237 36.3698 43.8711 35.9824 43.9688 35.5137C44.0729 35.0449 44.125 34.3158 44.125 33.3262V28.6289H46.8691V42.9453H44.125V37.7207C43.2526 38.7298 42.1784 39.2344 40.9023 39.2344C40.1081 39.2344 39.4473 39.0749 38.9199 38.7559C38.3926 38.4368 38.0085 38.0234 37.7676 37.5156C37.5332 37.0078 37.416 36.194 37.416 35.0742V24.6836ZM49.7012 26.9004H47.4551V24.6836H52.4453V33.9219C52.4453 35.0352 52.5039 35.7578 52.6211 36.0898C52.7383 36.4154 52.9271 36.6725 53.1875 36.8613C53.4479 37.0436 53.7669 37.1348 54.1445 37.1348C54.6589 37.1348 55.1146 36.9818 55.5117 36.6758C55.9089 36.3698 56.1562 35.9824 56.2539 35.5137C56.3581 35.0449 56.4102 34.3158 56.4102 33.3262V28.6289H59.1543V39H56.6055V37.4766C55.694 38.6484 54.5547 39.2344 53.1875 39.2344C52.3932 39.2344 51.7324 39.0749 51.2051 38.7559C50.6777 38.4368 50.2936 38.0234 50.0527 37.5156C49.8184 37.0078 49.7012 36.194 49.7012 35.0742V26.9004ZM64.7207 33.5215V42.9453H61.9863V28.6289H64.5352V30.1328H64.5547C65.0755 29.5273 65.7201 29.0911 66.4883 28.8242C67.2565 28.5573 68.1354 28.4238 69.125 28.4238C70.694 28.4238 71.9766 28.8177 72.9727 29.6055C73.9688 30.3932 74.5612 31.4642 74.75 32.8184H76.0195V34.752H74.7598C74.623 36.1908 74.1641 37.304 73.3828 38.0918C72.6081 38.873 71.599 39.2637 70.3555 39.2637C69.1445 39.2637 68.1777 38.974 67.4551 38.3945C66.7389 37.8151 66.3809 37.0208 66.3809 36.0117C66.3809 35.0091 66.7259 34.2279 67.416 33.668C68.1061 33.1016 69.0046 32.8184 70.1113 32.8184H71.9668C71.8105 32.0632 71.4297 31.4935 70.8242 31.1094C70.2188 30.7188 69.3919 30.5234 68.3438 30.5234C67.1068 30.5234 66.1921 30.7513 65.5996 31.207C65.0137 31.6628 64.7207 32.4342 64.7207 33.5215ZM70.209 37.2617C70.6973 37.2617 71.0977 37.0501 71.4102 36.627C71.7227 36.2038 71.9212 35.5788 72.0059 34.752H70.4043C69.9551 34.752 69.5775 34.8691 69.2715 35.1035C68.972 35.3314 68.8223 35.6341 68.8223 36.0117C68.8223 36.3828 68.9525 36.6855 69.2129 36.9199C69.4733 37.1478 69.8053 37.2617 70.209 37.2617ZM92.7285 39H90.1992V37.584C89.7435 38.1374 89.252 38.5508 88.7246 38.8242C88.2038 39.0977 87.6276 39.2344 86.9961 39.2344C85.668 39.2344 84.6914 38.6842 84.0664 37.584C83.1615 38.6842 82.1068 39.2344 80.9023 39.2344C80.1146 39.2344 79.4701 39.0814 78.9688 38.7754C78.4674 38.4694 78.0964 38.069 77.8555 37.5742C77.6211 37.0794 77.5039 36.3079 77.5039 35.2598V28.6289H80.248V34.5566C80.248 35.7155 80.3815 36.4349 80.6484 36.7148C80.9219 36.9948 81.2734 37.1348 81.7031 37.1348C82.237 37.1348 82.709 36.9167 83.1191 36.4805C83.5358 36.0443 83.7441 35.0872 83.7441 33.6094V28.6289H86.4883V34.3125C86.4883 35.3151 86.5339 35.9629 86.625 36.2559C86.7227 36.5488 86.8724 36.7702 87.0742 36.9199C87.2826 37.0632 87.5658 37.1348 87.9238 37.1348C88.3405 37.1348 88.7116 37.0241 89.0371 36.8027C89.3626 36.5814 89.6003 36.2624 89.75 35.8457C89.9062 35.429 89.9844 34.7031 89.9844 33.668V28.6289H92.7285V39ZM105.014 39H102.27V33.707C102.27 32.724 102.224 32.0501 102.133 31.6855C102.048 31.321 101.869 31.0312 101.596 30.8164C101.322 30.6016 100.98 30.4941 100.57 30.4941C100.056 30.4941 99.6003 30.6471 99.2031 30.9531C98.806 31.2591 98.5553 31.6465 98.4512 32.1152C98.3535 32.584 98.3047 33.3132 98.3047 34.3027V42.9453H95.5605V28.6289H98.1094V30.1523C99.0143 28.9805 100.154 28.3945 101.527 28.3945C102.309 28.3945 102.966 28.5573 103.5 28.8828C104.04 29.2018 104.428 29.6185 104.662 30.1328C104.896 30.6406 105.014 31.4479 105.014 32.5547V39ZM110.521 33.5215V42.9453H107.787V28.6289H110.336V30.1328H110.355C110.876 29.5273 111.521 29.0911 112.289 28.8242C113.057 28.5573 113.936 28.4238 114.926 28.4238C116.495 28.4238 117.777 28.8177 118.773 29.6055C119.77 30.3932 120.362 31.4642 120.551 32.8184H121.82V34.752H120.561C120.424 36.1908 119.965 37.304 119.184 38.0918C118.409 38.873 117.4 39.2637 116.156 39.2637C114.945 39.2637 113.979 38.974 113.256 38.3945C112.54 37.8151 112.182 37.0208 112.182 36.0117C112.182 35.0091 112.527 34.2279 113.217 33.668C113.907 33.1016 114.805 32.8184 115.912 32.8184H117.768C117.611 32.0632 117.23 31.4935 116.625 31.1094C116.02 30.7188 115.193 30.5234 114.145 30.5234C112.908 30.5234 111.993 30.7513 111.4 31.207C110.814 31.6628 110.521 32.4342 110.521 33.5215ZM116.01 37.2617C116.498 37.2617 116.898 37.0501 117.211 36.627C117.523 36.2038 117.722 35.5788 117.807 34.752H116.205C115.756 34.752 115.378 34.8691 115.072 35.1035C114.773 35.3314 114.623 35.6341 114.623 36.0117C114.623 36.3828 114.753 36.6855 115.014 36.9199C115.274 37.1478 115.606 37.2617 116.01 37.2617Z" fill="black"/>
</svg>
