<svg width="39" height="31" viewBox="0 0 39 31" fill="none" xmlns="http://www.w3.org/2000/svg">
<path d="M24.2969 0.417969H38.0176V10.2812C38.0176 14.2526 37.6595 17.3776 36.9434 19.6562C36.2598 21.9349 34.9577 24.002 33.0371 25.8574C31.1491 27.6803 28.7565 29.1126 25.8594 30.1543L23.1738 24.4414C25.9082 23.5299 27.8613 22.2604 29.0332 20.6328C30.2376 19.0052 30.8561 16.8405 30.8887 14.1387H24.2969V0.417969ZM1.25 0.417969H14.9707V10.2812C14.9707 14.2526 14.6289 17.3776 13.9453 19.6562C13.2617 21.9349 11.9596 24.002 10.0391 25.8574C8.15104 27.6803 5.74219 29.1126 2.8125 30.1543L0.126953 24.4414C2.89388 23.5299 4.86328 22.2604 6.03516 20.6328C7.20703 19.0052 7.82552 16.8405 7.89062 14.1387H1.25V0.417969Z" fill="#14A800"/>
</svg>
